<svg xmlns="http://www.w3.org/2000/svg" xmlns:xlink="http://www.w3.org/1999/xlink" id="Layer_1" viewBox="0 0 164.41 59.53"><defs><style>.cls-1{clip-path:url(#clippath);}.cls-2{fill:#0057b7;}.cls-3{fill:#0059ba;}.cls-4{fill:#fdd202;}.cls-5{fill:#fdd300;}.cls-6{fill:#dc202d;}.cls-7{fill:#c8c8c8;}</style><clipPath id="clippath"><path class="cls-3" d="m42.55,38.71c-.67.02-1.37-.02-1.82.59-.18.25-.62.42-.94.42-.99.02-1.1-.3-1.64.54-.3.45-.77.91-1.26,1.12-.8.34-1.38-.03-1.36-.89.02-1.02.02-1.65-.57-2.32-.32-.35-1.79-.27-2.29-.32-1.04-.1-.8-.65.07-1.22.66-.44,1.77-1.53,2.97-1.24.57-.39-.68-.6-.1-.95-.03-.12-.18-.43-.6-.34-1.14.2-3.01.44-3.81-.31-1.69-1.58.17-3.1-3.75-1.65-.48.18-1.12,1.48-1.48,1.84-.67.7-1.61,1.47-2.26,2.2-1.22,1.38-1.48,1.74-3.18,1.61-.92-.07-2.26-.03-1.64-.73.32-.37.72-.7,1.14-.97.6-.4.84-.94.79-1.64-.03-.54-.1-1.06-.07-1.59.05-.89.52-1.17,1.36-.87.62.22,1.21.49,1.83.72.08-.05.15-.12.23-.17-.13-.52-.17-1.07-.4-1.53-.64-1.29-1.12-2.73-2.06-3.77-1.16-1.31-2.58-2.5-4.11-3.34-1.09-.6-2.5-.39-3.59.57-.94.82-1.45,1.51-2.7,1.48-.78.2-1.4.13-1.73.95-.49-.1-1.29-.07-1.56-.27-1.98-1.58-3.43-.21-5.71-1.16-.39-.17-1.18-1.06-1.55-1.26-.75-.42-.87-.82-.3-1.46.5-.55.65-1.53,1.3-1.84.84-.39.65-.52.31-1.22-.5-1.07-.12-1.79.67-2.5.86-.75,2.35-2.56,3.38-3.15.53-.78-.35-2.39-.92-3.67-.2-.47-.39-.99-.47-1.49-.08-.52.22-.82.75-.69.69.18,1.21-.08,1.64-.55.47-.49,1.01-.65,1.66-.59,1.44.15,3.99-.41,5.4-.14.91.17,1.76.67,2.63.99.3.12.65.22.97.18,1.81-.12,3.37.67,4.93,1.38.7.32,1.64-.44,2.18.18.39.45.3.99,1.06.8.79-.2.09-1,.11-1.68.03-1.01.61-.46.64-1.45.03-.91,1.3-1.12,2.12-1.02,1.54.2,2.06-.22,3.2-1.31.44-.42,1.22-.49,1.84-.72.1-.03.33-.05.4,0,.75.52,1.43,1,2.15,1.57,2.76,3.26.69,1.91.45,2.8-.23.91-.02.97.86,1.22.32.08.65.12.99.2q1.59.39,1.81,2.01c.17,1.22.57,3.38,1.74,2.21,1.75,0,1.56,1.36,2.55.87.89-.33,2.09-1.9,2.92.18.44,1.04.77.84,1.76.73,1.31-.13,1.82.82,3.03,1.14.59.15.68,1.02,2.33,1.02.49.03.5.37.5.86-.03,1.26.01.91-.96,1.83-.47.45-.54.47-.07.72,1.09.6.29,1.09-.01,2.29-.08.32,1.04.93.03,1.47-.25.17-.07,1.15-.41,1.13-1.19-.07-1.8-.45-2.45.41-.32.4-1.24.06-1.21.58,0,1.83-.82,2.45-1.53,2.52-1.69.17-2,.34-3.52,1.04-1.73.79-4.49,1.59-6.1,2.61-.17.1-.34,1.38,1.54,3.81.87.42,1.91.07,2.58-.56,2.15,0,.66.49.99.95.49.71-.28,1.24-1.69.82Z"></path></clipPath></defs><g><path class="cls-2" d="m72.02,25.28c.68-.21,1.27-.5,1.76-.87.49-.38.87-.83,1.14-1.37s.4-1.13.4-1.77v-.28c0-.87-.24-1.67-.72-2.38-.48-.71-1.19-1.25-2.13-1.6.8-.44,1.37-.94,1.71-1.47.34-.54.52-1.17.52-1.89v-.23c0-.57-.14-1.09-.41-1.58-.28-.48-.66-.9-1.15-1.24-.49-.35-1.07-.62-1.75-.82s-1.42-.3-2.23-.3h-7.52v16.1h8.1c.84,0,1.61-.1,2.29-.31Zm-5.9-11.93h2.74c.4,0,.72.1.95.3.24.2.36.48.36.83v.21c0,.35-.14.65-.41.9s-.61.37-.99.37h-2.65v-2.6Zm0,8.35v-2.67h3.17c.2,0,.38.03.55.1.17.07.32.16.45.28.13.11.23.26.3.43.07.17.1.35.1.53v.18c0,.17-.03.32-.1.46-.07.14-.16.26-.28.37-.11.11-.25.19-.41.24-.16.05-.33.08-.52.08h-3.27Z"></path><polygon class="cls-2" points="88.68 21.54 82.49 21.54 82.49 19.49 87.99 19.49 87.99 15.74 82.49 15.74 82.49 13.53 88.45 13.53 88.45 9.49 77.73 9.49 77.73 25.59 88.68 25.59 88.68 21.54"></polygon><polygon class="cls-2" points="101.54 25.59 106.41 9.49 101.4 9.49 98.5 20.96 98.27 20.96 95.39 9.49 90.36 9.49 95.23 25.59 101.54 25.59"></polygon><path class="cls-2" d="m110.37,25.59l.71-2.53h5.08l.71,2.53h5.01l-5.31-16.1h-5.89l-5.38,16.1h5.06Zm3.4-10.99l1.46,4.85h-3.23l1.46-4.85h.32Z"></path><path class="cls-2" d="m134.1,19.22c.78-.4,1.41-.98,1.87-1.75.47-.77.7-1.62.7-2.55v-.23c0-.81-.14-1.54-.41-2.17-.28-.64-.68-1.18-1.21-1.63-.53-.45-1.17-.8-1.91-1.04-.74-.24-1.59-.36-2.54-.36h-7.13v16.1h4.76v-5.29h1.5l2.55,5.29h5.38l-3.56-6.37Zm-2.07-4.12c0,.52-.18.96-.55,1.32-.37.36-.94.54-1.7.54h-1.72v-3.66h1.77c.74,0,1.29.15,1.66.44.37.29.55.68.55,1.17v.18Z"></path><path class="cls-2" d="m71.14,42.53c0,.41-.07.78-.21,1.09-.14.31-.31.58-.53.78s-.46.36-.75.47-.57.16-.86.16c-.31,0-.61-.05-.9-.16-.29-.11-.55-.26-.77-.47-.22-.21-.4-.47-.54-.78-.14-.31-.21-.68-.21-1.09v-9.75h-4.78v9.89c0,1.01.17,1.92.51,2.74.34.81.82,1.51,1.44,2.08.62.58,1.37,1.02,2.25,1.32.88.31,1.87.46,2.98.46,1.04,0,2-.15,2.88-.44s1.63-.72,2.27-1.28,1.13-1.25,1.48-2.07c.35-.82.53-1.76.53-2.82v-9.89h-4.78v9.75Z"></path><polygon class="cls-2" points="93.11 32.78 87.91 32.78 83.77 39.2 83.51 39.2 83.51 32.78 78.73 32.78 78.73 48.88 83.51 48.88 83.51 41.7 83.75 41.7 87.84 48.88 93.29 48.88 87.63 40.19 93.11 32.78"></polygon><path class="cls-2" d="m107.45,40.76c.47-.77.7-1.62.7-2.55v-.23c0-.81-.14-1.54-.41-2.17-.28-.64-.68-1.18-1.21-1.63-.53-.45-1.17-.8-1.91-1.03-.74-.24-1.59-.36-2.54-.36h-7.13v16.1h4.76v-5.29h1.5l2.55,5.29h5.38l-3.56-6.37c.78-.4,1.41-.98,1.87-1.75Zm-3.94-2.37c0,.52-.18.96-.55,1.32s-.94.54-1.7.54h-1.72v-3.66h1.77c.74,0,1.29.15,1.66.44s.55.68.55,1.17v.18Z"></path><path class="cls-2" d="m114.75,32.78l-5.38,16.1h5.06l.71-2.53h5.08l.71,2.53h5.01l-5.31-16.1h-5.89Zm3.08,5.11l1.46,4.85h-3.23l1.46-4.85h.32Z"></path><rect class="cls-2" x="127.35" y="32.78" width="4.76" height="16.1"></rect><polygon class="cls-2" points="145.57 41.87 145.45 41.87 140.44 32.78 135.17 32.78 135.17 48.88 139.73 48.88 139.73 38.53 139.84 38.53 145.52 48.88 150.12 48.88 150.12 32.78 145.57 32.78 145.57 41.87"></polygon><polygon class="cls-2" points="157.94 44.83 157.94 42.79 163.44 42.79 163.44 39.04 157.94 39.04 157.94 36.83 163.9 36.83 163.9 32.78 153.18 32.78 153.18 48.88 164.13 48.88 164.13 44.83 157.94 44.83"></polygon></g><g><path class="cls-7" d="m1.49,35.63c-.2,0-.38-.13-.44-.33C.32,32.69,0,29.97.09,27.23c0-.25.24-.46.47-.44.25,0,.45.22.44.47-.09,2.65.23,5.27.93,7.79.07.24-.07.49-.32.56-.04.01-.08.02-.12.02Z"></path><path class="cls-7" d="m47.6,43.77c-.1,0-.19-.03-.28-.09-.2-.15-.24-.44-.08-.64,3.26-4.23,5.09-9.29,5.32-14.62.01-.25.25-.43.47-.44.25.01.45.22.44.47-.23,5.52-2.14,10.76-5.51,15.14-.09.12-.22.18-.36.18Z"></path><path class="cls-7" d="m48.76,13.7c-.15,0-.29-.07-.38-.21C43.59,6.17,35.51,1.81,26.77,1.81c-4.56,0-9.05,1.21-12.97,3.49-.22.13-.49.05-.62-.16s-.05-.5.16-.62c4.06-2.36,8.7-3.61,13.43-3.61,9.04,0,17.4,4.52,22.37,12.1.14.21.08.49-.13.63-.08.05-.16.07-.25.07Z"></path><g><path class="cls-3" d="m42.55,38.71c-.67.02-1.37-.02-1.82.59-.18.25-.62.42-.94.42-.99.02-1.1-.3-1.64.54-.3.45-.77.91-1.26,1.12-.8.34-1.38-.03-1.36-.89.02-1.02.02-1.65-.57-2.32-.32-.35-1.79-.27-2.29-.32-1.04-.1-.8-.65.07-1.22.66-.44,1.77-1.53,2.97-1.24.57-.39-.68-.6-.1-.95-.03-.12-.18-.43-.6-.34-1.14.2-3.01.44-3.81-.31-1.69-1.58.17-3.1-3.75-1.65-.48.18-1.12,1.48-1.48,1.84-.67.7-1.61,1.47-2.26,2.2-1.22,1.38-1.48,1.74-3.18,1.61-.92-.07-2.26-.03-1.64-.73.32-.37.72-.7,1.14-.97.6-.4.84-.94.79-1.64-.03-.54-.1-1.06-.07-1.59.05-.89.52-1.17,1.36-.87.62.22,1.21.49,1.83.72.08-.05.15-.12.23-.17-.13-.52-.17-1.07-.4-1.53-.64-1.29-1.12-2.73-2.06-3.77-1.16-1.31-2.58-2.5-4.11-3.34-1.09-.6-2.5-.39-3.59.57-.94.82-1.45,1.51-2.7,1.48-.78.2-1.4.13-1.73.95-.49-.1-1.29-.07-1.56-.27-1.98-1.58-3.43-.21-5.71-1.16-.39-.17-1.18-1.06-1.55-1.26-.75-.42-.87-.82-.3-1.46.5-.55.65-1.53,1.3-1.84.84-.39.65-.52.31-1.22-.5-1.07-.12-1.79.67-2.5.86-.75,2.35-2.56,3.38-3.15.53-.78-.35-2.39-.92-3.67-.2-.47-.39-.99-.47-1.49-.08-.52.22-.82.75-.69.69.18,1.21-.08,1.64-.55.47-.49,1.01-.65,1.66-.59,1.44.15,3.99-.41,5.4-.14.91.17,1.76.67,2.63.99.3.12.65.22.97.18,1.81-.12,3.37.67,4.93,1.38.7.32,1.64-.44,2.18.18.39.45.3.99,1.06.8.79-.2.09-1,.11-1.68.03-1.01.61-.46.64-1.45.03-.91,1.3-1.12,2.12-1.02,1.54.2,2.06-.22,3.2-1.31.44-.42,1.22-.49,1.84-.72.1-.03.33-.05.4,0,.75.52,1.43,1,2.15,1.57,2.76,3.26.69,1.91.45,2.8-.23.91-.02.97.86,1.22.32.08.65.12.99.2q1.59.39,1.81,2.01c.17,1.22.57,3.38,1.74,2.21,1.75,0,1.56,1.36,2.55.87.89-.33,2.09-1.9,2.92.18.44,1.04.77.84,1.76.73,1.31-.13,1.82.82,3.03,1.14.59.15.68,1.02,2.33,1.02.49.03.5.37.5.86-.03,1.26.01.91-.96,1.83-.47.45-.54.47-.07.72,1.09.6.29,1.09-.01,2.29-.08.32,1.04.93.03,1.47-.25.17-.07,1.15-.41,1.13-1.19-.07-1.8-.45-2.45.41-.32.4-1.24.06-1.21.58,0,1.83-.82,2.45-1.53,2.52-1.69.17-2,.34-3.52,1.04-1.73.79-4.49,1.59-6.1,2.61-.17.1-.34,1.38,1.54,3.81.87.42,1.91.07,2.58-.56,2.15,0,.66.49.99.95.49.71-.28,1.24-1.69.82Z"></path><g class="cls-1"><path class="cls-4" d="m57.13,22.31H-1.84v19.85h58.97v-19.85Z"></path></g></g><g><path class="cls-6" d="m17.61,49.02v-9.17c-.5-.67-.91-1.42-1.08-2.35-.42.36-.83.71-1.04,1.17-.54,1.21-.16,2.3.51,3.37.38.61.75,1.24.94,1.91.34,1.21-.4,2.34-1.66,2.53-.75.12-1.33-.06-1.76-.15,1.05-.03,2.01-.2,2.01-1.17,0-.29-1.36-2.23-2.1-3.58-.42-.77-.69-1.62-1.16-2.34-.39-.61-.77-1.08-1.38-1.49-.4-.26-1.42-.25-1.48-.17,1.27,2.3,2.52,4.6,3.76,6.89-.28-.24-.7-.47-.96-.83-.58-.81-1.14-1.66-1.6-2.54-.52-1.01-.87-2.11-1.4-3.12-.58-1.14-1.8-1.63-2.67-1.2.46.79,1.02,1.53,1.35,2.38.74,1.87,1.59,3.65,2.93,5.18-1.35-1.12-2.49-2.4-3.2-4-.43-.92-.85-1.83-1.32-2.72-.22-.4-.5-.81-.85-1.1-.62-.52-1.24-.42-1.67.12,1.01,2.21,1.99,4.36,2.98,6.5-.07.03-.12.07-.17.09-.73-1.24-1.43-2.48-2.17-3.7-.39-.63-.77-1.28-1.27-1.8-.55-.58-1.2-.59-1.92-.19,1.92,4.63,4.1,9,8.67,11.49h7.69Z"></path><path class="cls-6" d="m19.55,49.02h4.51c-.08-.39-.19-.77-.35-1.15-.42-1.02-.96-2.03-1.62-2.92-.78-1.03-1.66-1.98-2.55-2.93v7Z"></path><path class="cls-6" d="m19.55,50.97v7.54s0,0,0,0c1.55-1.12,3.57-4.03,4.23-6.03.17-.5.28-1.01.34-1.51h-4.57Z"></path><path class="cls-6" d="m17.61,50.97h-3.95c1.34.8,2.82,1.84,3.95,3.04v-3.04Z"></path></g><g><path class="cls-5" d="m25.94,50.22c-.12.61-.21,1.22-.27,1.83-.19,2.06.19,4.46.83,6.58.22-.34.34-.53.47-.75,1.42-2.18,3.22-3.77,6.05-4.14,1.11-.14,2.23-.22,3.33-.31,1.82-.14,3.41-.79,4.85-1.93.52-.42,1.01-.85,1.5-1.29h-16.76Z"></path><path class="cls-3" d="m44.78,45.42c-.68.56-1.27,1.23-1.91,1.85-.46.43-.95.82-1.42,1.22-.03-.03-.06-.09-.09-.12,1.22-1.44,2.45-2.86,3.69-4.31-.44-.65-.98-.78-1.66-.31-.32.21-.59.5-.85.77-.64.71-1.23,1.5-1.93,2.13-.79.7-1.69,1.28-2.53,1.91-.01-.03-.02-.06-.03-.1,1.57-1.66,3.13-3.33,4.7-4.98-.77-.52-1.69-.4-2.47.44-.76.81-1.43,1.71-2.16,2.55-.7.79-1.51,1.44-2.47,1.7,1.53-1.56,3.09-3.16,4.71-4.79-1.07-.32-1.77-.15-2.57.6-.57.53-1.03,1.17-1.6,1.72-.94.91-1.9,1.8-2.91,2.64-.33.29-.31.49-.07.73.34.34,1.02.34,1.02.34,0,0-1.08.72-2.19-.6-.67-.8-.84-1.73-.3-2.61.44-.72,1.09-1.3,1.68-1.91.34-.34.8-.55,1.14-.88.77-.75.83-1.86.16-2.95-2.02,1.38-4.12,2.65-6.03,4.17-.88.7-1.61,1.81-2.01,2.87-.33.87-.57,1.79-.75,2.72h16.77c1.33-1.21,2.54-2.53,3.57-4.01.2-.29.38-.59.57-.87-.77-.52-1.34-.53-2.05.07Z"></path></g></g></svg>