<svg viewBox="0 0 90 25" fill="#ffffff" xmlns="http://www.w3.org/2000/svg">
<path d="M4.04321 5.8856H0.336935C0.113065 5.8856 0 5.77256 0 5.54874V1.30425C0 1.08033 0.113065 0.967285 0.336935 0.967285H14.1807C14.4045 0.967285 14.5176 1.08033 14.5176 1.30425V5.54874C14.5176 5.77256 14.4045 5.8856 14.1807 5.8856H10.5083C10.3726 5.8856 10.3071 5.95346 10.3071 6.08693V23.5351C10.3071 23.759 10.1939 23.8721 9.97011 23.8721H4.5814C4.35754 23.8721 4.24447 23.759 4.24447 23.5351V6.08693C4.24447 5.95121 4.17663 5.8856 4.04321 5.8856Z" fill="#ffffff"/>
<path d="M25.1797 15.8738C25.0779 15.7494 24.9264 15.6884 24.7252 15.6884H23.6126C23.4769 15.6884 23.3774 15.6997 23.3096 15.7223C23.2417 15.7449 23.2078 15.8128 23.2078 15.9236V23.5351C23.2078 23.759 23.0947 23.8721 22.8709 23.8721H17.4821C17.2583 23.8721 17.1453 23.759 17.1453 23.5351V1.30425C17.1453 1.08033 17.2583 0.967285 17.4821 0.967285H25.1616C26.5319 0.967285 27.7372 1.07358 28.7819 1.28841C29.8266 1.50099 30.6905 1.8492 31.3756 2.33313C32.0608 2.81706 32.5764 3.46154 32.9246 4.26884C33.2729 5.07839 33.447 6.06425 33.447 7.23335C33.447 8.55851 33.2502 9.70269 32.8568 10.6683C32.4634 11.6339 31.8528 12.4864 31.0206 13.2281C30.8193 13.4067 30.6905 13.5311 30.6339 13.599C30.5774 13.6668 30.5502 13.7459 30.5502 13.8341C30.5502 13.902 30.5955 14.0354 30.686 14.2389C30.7764 14.4424 30.8872 14.6776 31.0229 14.9467L35.1317 23.5351C35.2221 23.759 35.143 23.8721 34.8965 23.8721H28.8679C28.7548 23.8721 28.6666 23.8563 28.5988 23.8223C28.5309 23.7884 28.4744 23.7047 28.4314 23.5691L25.702 16.9004C25.4555 16.3396 25.2815 15.9959 25.1797 15.8738ZM26.7128 11.0731C27.1176 10.5801 27.3189 9.68009 27.3189 8.37761C27.3189 7.23336 27.1335 6.42381 26.7626 5.95347C26.3917 5.48088 25.6681 5.2457 24.5894 5.2457H23.9495C23.6352 5.2457 23.4339 5.26155 23.3435 5.29548C23.253 5.32932 23.2078 5.40168 23.2078 5.51481V11.41C23.2078 11.5886 23.3028 11.7017 23.4949 11.7469C23.6872 11.7922 24.0512 11.8148 24.5894 11.8148C25.6002 11.8148 26.3081 11.5683 26.7106 11.0731H26.7128Z" fill="#ffffff"/>
<path d="M48.8443 0.967285H54.0995C54.346 0.967285 54.4703 1.08033 54.4703 1.30425C54.4703 1.41729 54.3867 1.70222 54.2171 2.16356C54.0475 2.62481 53.8191 3.19694 53.5274 3.88211C53.2357 4.56729 52.9033 5.32481 52.5347 6.1547C52.1638 6.98459 51.7703 7.83942 51.3565 8.71458C50.9404 9.58965 50.5266 10.4557 50.1106 11.3083C49.6945 12.1608 49.3078 12.9364 48.9482 13.6329C48.5209 14.4198 48.2134 15.0191 48.0211 15.4351C47.8289 15.8512 47.7339 16.1813 47.7339 16.4278V23.5351C47.7339 23.759 47.6209 23.8721 47.397 23.8721H42.0083C41.7844 23.8721 41.6713 23.759 41.6713 23.5351V16.4278C41.6713 16.1362 41.6148 15.8557 41.504 15.5866L40.3598 13.3299C39.5729 11.6452 38.8606 10.1075 38.2206 8.71458C37.5807 7.32156 37.0311 6.10503 36.5699 5.06031C36.1085 4.0155 35.7512 3.17436 35.4912 2.53437C35.2334 1.89447 35.1045 1.48515 35.1045 1.30425C35.1498 1.08033 35.2719 0.967285 35.4754 0.967285H40.864C40.9545 0.967285 41.0495 0.989875 41.1512 1.03515C41.253 1.08033 41.3254 1.17078 41.3706 1.30425C41.4384 1.52808 41.5492 1.87179 41.7075 2.33088C41.8658 2.78988 42.049 3.31908 42.2638 3.91379C42.4786 4.50852 42.7025 5.13267 42.9377 5.78391C43.1729 6.43515 43.4035 7.0638 43.6274 7.66977C43.8512 8.27583 44.0548 8.82078 44.2335 9.30246C44.412 9.78414 44.5591 10.1392 44.6721 10.363C44.6947 10.4535 44.7739 10.4987 44.9073 10.4987C45.0203 10.4987 45.0973 10.4535 45.1425 10.363C45.2985 10.0035 45.5359 9.3974 45.8502 8.54492C46.1646 7.69244 46.4902 6.78785 46.8272 5.83358C47.164 4.87931 47.4852 3.97482 47.7882 3.12234C48.0912 2.26986 48.2992 1.6638 48.4101 1.30425C48.4779 1.08033 48.6226 0.967285 48.8488 0.967285H48.8443Z" fill="#ffffff"/>
<path d="M68.6849 1.27032C69.6279 1.47156 70.4262 1.84244 71.0774 2.38289C71.7286 2.92109 72.2216 3.66953 72.5585 4.6238C72.8955 5.57807 73.0628 6.80829 73.0628 8.31201C73.0628 10.0419 72.8435 11.4439 72.4071 12.5226C71.9683 13.6012 71.3804 14.4424 70.6387 15.0484C69.897 15.6545 69.0445 16.0638 68.0789 16.2786C67.1134 16.4912 66.1138 16.5974 65.0804 16.5974H63.8344C63.4522 16.5974 63.2058 16.6132 63.0927 16.6472C62.9797 16.6811 62.9254 16.7535 62.9254 16.8665V23.5351C62.9254 23.759 62.8124 23.8721 62.5884 23.8721H57.2337C57.0098 23.8721 56.8967 23.759 56.8967 23.5351V1.30425C56.8967 1.08033 57.0098 0.967285 57.2337 0.967285H65.4535C66.6656 0.967285 67.7443 1.06908 68.6872 1.27032H68.6849ZM65.3834 11.9663C65.7203 11.8646 66.0008 11.6791 66.2246 11.41C66.4485 11.1409 66.6181 10.7701 66.7289 10.2974C66.8419 9.82481 66.8985 9.21885 66.8985 8.47932C66.8985 7.17684 66.6904 6.30627 66.2744 5.86977C65.8583 5.43111 65.2364 5.21178 64.4043 5.21178H63.26C63.0362 5.21178 62.9231 5.30223 62.9231 5.48088V11.8803C62.9231 12.0364 63.0362 12.1155 63.26 12.1155H64.1691C64.6394 12.1155 65.0443 12.0658 65.3811 11.964L65.3834 11.9663Z" fill="#ffffff"/>
<path d="M69.101 23.8246V22.3321C69.101 22.2689 69.1327 22.2349 69.1982 22.2349H70.7766C70.84 22.2349 70.8739 22.2666 70.8739 22.3321V23.8246C70.8739 23.888 70.8422 23.9219 70.7766 23.9219H69.1982C69.1349 23.9219 69.101 23.8902 69.101 23.8246Z" fill="#ffffff"/>
<path d="M75.392 23.9558C75.1568 23.9965 74.8696 24.0191 74.5304 24.0191C74.0307 24.0191 73.6078 23.9467 73.264 23.802C72.9203 23.6573 72.64 23.4447 72.4229 23.1621C72.2058 22.8794 72.0475 22.5312 71.9502 22.1174C71.853 21.7035 71.8055 21.2309 71.8055 20.6972C71.8055 20.1635 71.853 19.6977 71.9502 19.2771C72.0475 18.8565 72.2035 18.4993 72.4229 18.203C72.6422 17.9068 72.9226 17.6806 73.264 17.5201C73.6078 17.3595 74.0284 17.2804 74.5304 17.2804C74.813 17.2804 75.0821 17.294 75.3377 17.3233C75.5932 17.3528 75.7967 17.3934 75.9437 17.4432C75.9618 17.4568 75.9754 17.4658 75.9821 17.4726C75.989 17.4794 75.9912 17.4975 75.9912 17.5314L75.9234 18.8113C75.9234 18.8249 75.9166 18.8407 75.9053 18.8588C75.8917 18.8792 75.8736 18.8814 75.8465 18.8678C75.7063 18.8361 75.5457 18.809 75.3648 18.791C75.1862 18.7729 75.0121 18.7615 74.8447 18.7615C74.6276 18.7615 74.4445 18.7865 74.2953 18.8384C74.1482 18.8904 74.0307 18.9877 73.9447 19.1324C73.8588 19.2771 73.7977 19.4739 73.7616 19.7249C73.7254 19.9759 73.7095 20.3015 73.7095 20.7062C73.7095 21.0794 73.7276 21.3824 73.7616 21.6153C73.7977 21.8505 73.8588 22.0337 73.9447 22.1693C74.0307 22.305 74.1482 22.3977 74.2953 22.4475C74.4422 22.4995 74.6254 22.5243 74.8447 22.5243C75.0302 22.5243 75.2179 22.5131 75.4078 22.4904C75.5977 22.4678 75.7561 22.4407 75.8849 22.409C75.9098 22.4022 75.9347 22.4 75.9573 22.4045C75.9799 22.4068 75.9935 22.4249 76.0002 22.4565L76.0772 23.6889C76.0839 23.7455 76.0636 23.7816 76.0183 23.7952C75.8329 23.8585 75.6226 23.9128 75.3874 23.9535L75.392 23.9558Z" fill="#ffffff"/>
<path d="M81.9995 22.3005C81.8774 22.7912 81.701 23.1621 81.4703 23.4131C81.2578 23.6573 80.9887 23.8178 80.6563 23.8993C80.3262 23.9806 79.9101 24.0191 79.4103 24.0191C79.1593 24.0191 78.9331 24.0101 78.7274 23.9897C78.5216 23.9693 78.3362 23.9377 78.1689 23.8924C78.0015 23.8472 77.8522 23.7861 77.7211 23.7093C77.59 23.6324 77.4701 23.5329 77.3593 23.4107C77.2439 23.2887 77.1422 23.1326 77.0563 22.9382C76.9703 22.7459 76.898 22.5312 76.8392 22.2937C76.7804 22.0562 76.7374 21.7985 76.7035 21.518C76.6719 21.2399 76.6561 20.9483 76.6561 20.6475C76.6561 20.0324 76.7171 19.4806 76.8392 18.9967C76.9613 18.5128 77.1354 18.1442 77.3593 17.8955C77.5764 17.6512 77.8522 17.4884 78.1825 17.4048C78.5126 17.3211 78.9286 17.2804 79.4284 17.2804C79.9282 17.2804 80.3488 17.3211 80.6699 17.4048C80.991 17.4884 81.2578 17.6512 81.4681 17.8955C81.6988 18.1465 81.8752 18.5128 81.9972 18.9967C82.1193 19.4806 82.1804 20.0324 82.1804 20.6475C82.1804 21.2625 82.1193 21.8075 81.9972 22.2983L81.9995 22.3005ZM78.5578 21.7035C78.5939 22.0201 78.646 22.2416 78.7161 22.3638C78.7726 22.4542 78.863 22.5107 78.9852 22.5334C79.1073 22.556 79.252 22.5674 79.4193 22.5674C79.5867 22.5674 79.7404 22.556 79.8626 22.5334C79.9847 22.5107 80.0706 22.4542 80.1226 22.3638C80.1927 22.2416 80.247 22.0223 80.2809 21.7035C80.3148 21.3847 80.3329 21.0341 80.3329 20.6497C80.3329 20.2653 80.3148 19.9058 80.2809 19.5914C80.2447 19.2771 80.1927 19.0601 80.1226 18.9379C80.0706 18.8475 79.9847 18.791 79.8626 18.7706C79.7404 18.7479 79.5957 18.7367 79.4284 18.7367C79.261 18.7367 79.1163 18.7479 78.9897 18.7706C78.8653 18.7932 78.7726 18.8497 78.7161 18.9379C78.646 19.0601 78.5917 19.2771 78.5578 19.5914C78.5216 19.9058 78.5058 20.2585 78.5058 20.6497C78.5058 21.041 78.5238 21.3869 78.5578 21.7035Z" fill="#ffffff"/>
<path d="M87.7748 17.3776H89.7286C89.7919 17.3776 89.8259 17.4093 89.8259 17.4749V23.8268C89.8259 23.8902 89.7942 23.9241 89.7286 23.9241H88.1706C88.1073 23.9241 88.0734 23.8925 88.0734 23.8268L88.1593 19.7272C88.1593 19.6683 88.1547 19.6345 88.1457 19.6209C88.1366 19.6073 88.1163 19.6028 88.0824 19.6028C88.0303 19.6028 87.9919 19.648 87.9671 19.7384L87.1779 22.2892C87.153 22.3593 87.1303 22.4045 87.1146 22.4249C87.0988 22.4453 87.0648 22.4543 87.0128 22.4543H85.9726C85.9138 22.4543 85.8754 22.4475 85.8573 22.4362C85.837 22.4226 85.8165 22.3819 85.7894 22.3118L85.0206 19.7226C85.0071 19.6706 84.9935 19.639 84.9776 19.6254C84.9618 19.6118 84.9415 19.6073 84.9143 19.6073C84.8623 19.6073 84.8374 19.6526 84.8374 19.743L84.9143 23.8337C84.9143 23.897 84.8827 23.9309 84.8171 23.9309H83.3359C83.2726 23.9309 83.2387 23.8992 83.2387 23.8337V17.4817C83.2387 17.4183 83.2703 17.3845 83.3359 17.3845H85.4254C85.4706 17.3845 85.5045 17.4161 85.5317 17.4817L86.4565 20.4168C86.4882 20.5254 86.5266 20.5796 86.5718 20.5796C86.6103 20.5796 86.6352 20.5661 86.6488 20.5412C86.6623 20.5164 86.6781 20.4734 86.6962 20.4168L87.6482 17.4817C87.6618 17.4183 87.7025 17.3845 87.7726 17.3845L87.7748 17.3776Z" fill="#ffffff"/>
</svg>
